<?xml version="1.0" encoding="UTF-8"?>
<svg version="1.1" xmlns="http://www.w3.org/2000/svg" width="512" height="512">
<path d="M0 0 C8.001196 7.47708055 15.26830423 15.35189354 22 24 C22.78761719 24.97066406 23.57523437 25.94132812 24.38671875 26.94140625 C54.32909873 64.49864582 71.15738093 112.53107122 76 160 C76.11085938 161.03511719 76.22171875 162.07023438 76.3359375 163.13671875 C82.08489292 227.54055722 63.63207047 293.31387601 22.38232422 343.35644531 C18.42285389 348.06417302 14.25565681 352.56030708 10 357 C9.49742676 357.52980469 8.99485352 358.05960937 8.47705078 358.60546875 C1.08962479 366.358928 -6.64465368 373.26092375 -15.22607422 379.66601562 C-16.97242113 380.97926081 -18.69212302 382.32188617 -20.41015625 383.671875 C-44.94572692 402.65462243 -83.0690659 425.21335731 -115 423 C-122.07813473 421.60138326 -126.77782877 418.1795672 -131.30859375 412.6328125 C-137.41019424 403.13517109 -138.18145819 392.10712596 -138.125 381.125 C-138.12306641 380.19518311 -138.12113281 379.26536621 -138.11914062 378.30737305 C-138.08509863 372.78736852 -137.88124891 367.31882349 -137.5 361.8125 C-134.65045285 331.73275311 -134.65045285 331.73275311 -144 304 C-145.19458054 302.69560376 -146.40378213 301.40449175 -147.625 300.125 C-151.53936052 295.84866636 -152.78711889 291.75746637 -153 286 C-152.13240444 280.89082616 -150.03677282 278.19577849 -146 275 C-138.08039145 270.98804729 -129.43085684 269.35977713 -120.8125 267.5625 C-96.32384965 262.45279391 -72.66060541 254.87203835 -58 233 C-44.39640611 209.610731 -39.91169383 178.75499578 -46.0234375 152.39453125 C-49.63822608 139.82952615 -55.74111744 129.26801163 -64.265625 119.421875 C-67.02819096 115.56423784 -68.46360051 111.68392835 -67.8125 106.9375 C-67.70679688 106.1640625 -67.60109375 105.390625 -67.4921875 104.59375 C-66.93693243 101.66764394 -66.18664102 98.81990927 -65.4375 95.9375 C-62.83945731 85.11443436 -63.59888023 73.97006432 -65 63 C-79.19824977 67.2936288 -91.48265245 72.70316244 -103.9375 80.8125 C-113.76950796 87.14964967 -119.91303601 87.52576163 -131.265625 85.1015625 C-132.8646261 84.75540585 -134.46358274 84.40904371 -136.0625 84.0625 C-166.64887989 77.5099677 -198.29003229 78.21836986 -228.68164062 85.41088867 C-236.81846925 87.25936387 -242.94678542 87.49076746 -250.5625 83.5 C-251.58859375 82.96375 -252.6146875 82.4275 -253.671875 81.875 C-256.64002311 80.20280388 -259.53657198 78.45779362 -262.43139648 76.66430664 C-272.43124595 70.47491247 -282.63050518 66.11790993 -294 63 C-295.30025357 74.37721877 -296.01384465 85.18355615 -293 96.3125 C-289.21615835 110.38412935 -289.21615835 110.38412935 -293.5 117.875 C-295.86051111 121.48257359 -298.42031979 124.92219726 -301 128.375 C-315.95841546 148.7104367 -316.59391583 171.4913095 -313.36376953 195.62353516 C-309.93960206 217.99323055 -300.20340128 238.11080582 -281.97265625 252.05859375 C-264.95448855 263.17295557 -245.78855618 267.21732555 -225.97558594 270.12573242 C-218.45175013 271.29383263 -213.26556887 272.17140201 -208.1875 278.125 C-206.15922709 283.03555547 -205.10208837 288.1478101 -206.73046875 293.3203125 C-208.04161096 296.04306759 -209.2362915 298.32315765 -211.51538086 300.34301758 C-213.30188032 302.33692842 -213.55146543 303.57830071 -213.95703125 306.203125 C-214.10076172 307.01910156 -214.24449219 307.83507812 -214.39257812 308.67578125 C-214.66974334 310.37486849 -214.93816114 312.07540872 -215.19726562 313.77734375 C-216.30052243 319.91511303 -218.24521571 323.87875253 -223 328 C-226.77940381 330.29444657 -230.80837299 331.61797805 -235 333 C-236.41539062 333.48146484 -236.41539062 333.48146484 -237.859375 333.97265625 C-255.68705549 339.04269766 -275.75456272 337.31522243 -292.0859375 328.76171875 C-296.75032904 325.94182521 -300.89767217 322.57592293 -305 319 C-299.65084808 331.15716345 -293.60128886 339.09633103 -281 344 C-274.9982686 346.13760296 -269.54012769 346.30994166 -263.25 346.25 C-262.271521 346.24613281 -261.29304199 346.24226563 -260.28491211 346.23828125 C-254.41057675 346.16778335 -248.86609242 345.73354528 -243.1171875 344.45703125 C-238.62963271 343.48831555 -235.12171635 343.60410011 -230.8125 345.125 C-225.62482524 348.58344984 -223.81432368 352.82578806 -222.40594482 358.7696228 C-221.71668971 362.5565879 -221.67475887 366.30383202 -221.6640625 370.14453125 C-221.6574057 370.99496506 -221.6507489 371.84539886 -221.64389038 372.72160339 C-221.63382384 374.51075091 -221.62907149 376.29993552 -221.62939453 378.08911133 C-221.62502811 380.79507729 -221.58866418 383.4994005 -221.55078125 386.20507812 C-221.47861112 397.15569741 -221.55340561 407.33921745 -229.25 415.9375 C-236.41892452 422.35261057 -243.85308825 424.22164517 -253.27099609 424.17919922 C-257.64613441 423.89190708 -261.51071631 422.64210562 -265.625 421.1875 C-266.51888428 420.8790918 -267.41276855 420.57068359 -268.33374023 420.25292969 C-292.7146415 411.56787857 -316.17366085 399.37037838 -337 384 C-337.59474121 383.56220215 -338.18948242 383.1244043 -338.80224609 382.67333984 C-348.50240193 375.45903271 -357.30048522 367.37810413 -366 359 C-366.7940625 358.2471875 -367.588125 357.494375 -368.40625 356.71875 C-411.48337167 315.009156 -433.9213309 251.64860457 -435.12890625 192.55859375 C-435.53703354 161.84071664 -431.08734475 132.33476014 -422 103 C-421.73880371 102.13987305 -421.47760742 101.27974609 -421.20849609 100.39355469 C-412.6331774 72.56650765 -398.39535046 46.52195357 -380 24 C-379.58991699 23.48840332 -379.17983398 22.97680664 -378.75732422 22.44970703 C-367.96135957 9.00386178 -355.76472477 -3.58602428 -342 -14 C-341.44521973 -14.42587402 -340.89043945 -14.85174805 -340.31884766 -15.29052734 C-331.26316118 -22.22298095 -321.95363892 -28.43511497 -312 -34 C-311.22946289 -34.433125 -310.45892578 -34.86625 -309.66503906 -35.3125 C-280.63304269 -51.47582578 -249.76069916 -60.92683462 -217 -66 C-216.15646973 -66.13277344 -215.31293945 -66.26554687 -214.44384766 -66.40234375 C-137.38435213 -77.89749582 -57.21157712 -52.06012796 0 0 Z " fill="#000000" transform="translate(435,78)"/>
<path d="M0 0 C0.94878021 -0.0080365 1.89756042 -0.016073 2.87509155 -0.02435303 C55.65451913 -0.36327888 107.58298157 18.46839686 147.1875 53.375 C147.94675781 54.02339844 148.70601563 54.67179687 149.48828125 55.33984375 C157.99488029 62.62413536 165.23634965 70.60192877 172.1875 79.375 C173.36119141 80.80585938 173.36119141 80.80585938 174.55859375 82.265625 C197.65628059 111.09153817 213.8821927 148.1993657 218.8125 184.8125 C218.93367188 185.65103516 219.05484375 186.48957031 219.1796875 187.35351562 C220.90134357 199.71388336 221.45702392 212.09292005 221.5 224.5625 C221.50261841 225.29812164 221.50523682 226.03374329 221.50793457 226.79165649 C221.51521037 246.05459832 218.98089012 264.96174259 213.1875 283.375 C212.87474121 284.40101318 212.87474121 284.40101318 212.55566406 285.44775391 C196.32127184 338.45104172 161.02330409 381.94882458 112.27441406 408.41357422 C104.40111469 412.59014161 96.32650979 416.26746136 88.125 419.75 C87.33963867 420.08394775 86.55427734 420.41789551 85.74511719 420.76196289 C84.61638184 421.23170532 84.61638184 421.23170532 83.46484375 421.7109375 C82.80734131 421.98470215 82.14983887 422.2584668 81.47241211 422.54052734 C78.42349438 423.65402246 75.31028981 424.49333423 72.1875 425.375 C72.19416183 424.51881577 72.20082367 423.66263153 72.20768738 422.78050232 C72.26820664 414.64717775 72.31367949 406.51393057 72.34293652 398.38043118 C72.35848429 394.20054325 72.37951904 390.0208439 72.41381836 385.84106445 C72.44680603 381.79505161 72.46443448 377.74921825 72.47213173 373.70308113 C72.47760553 372.1719792 72.48829045 370.64088526 72.50469017 369.10986137 C72.61084751 358.77283383 71.55002258 349.4528437 69.1875 339.375 C68.84751968 337.70967653 68.51146055 336.04351384 68.1875 334.375 C68.83332031 334.23964844 69.47914063 334.10429687 70.14453125 333.96484375 C101.25718804 326.85702749 128.97989233 310.58059414 146.80126953 283.62646484 C154.24830225 271.53126658 159.75061891 258.13649543 163.1875 244.375 C163.50460937 243.11558594 163.82171875 241.85617187 164.1484375 240.55859375 C170.8375016 210.79870802 165.81413874 177.445207 150.8359375 150.9453125 C149.41214729 148.72527943 147.91669701 146.85258995 146.1875 144.875 C143.81021922 141.69710498 144.12341498 139.37549547 144.54296875 135.51171875 C146.47575772 114.91534681 148.52507425 88.89497408 135.1875 71.375 C128.90024993 65.46833407 121.15021495 65.96425554 113.0703125 66.109375 C94.98271029 66.83033453 75.76847709 75.3531575 61.15600586 85.71948242 C57.39393646 88.2381418 54.8023948 88.68997123 50.36157227 87.86328125 C49.64412842 87.70214844 48.92668457 87.54101562 48.1875 87.375 C16.3274083 80.72904186 -19.6488023 79.89462409 -51.53808594 86.89428711 C-52.28864258 87.05292236 -53.03919922 87.21155762 -53.8125 87.375 C-54.78743408 87.61089844 -55.76236816 87.84679687 -56.7668457 88.08984375 C-60.44198749 88.43393719 -61.88508729 87.73110738 -65.05859375 85.91015625 C-66.05012451 85.36069336 -67.04165527 84.81123047 -68.06323242 84.24511719 C-69.64068237 83.35034668 -69.64068237 83.35034668 -71.25 82.4375 C-79.80435812 77.77573133 -88.26829431 73.75765392 -97.5 70.625 C-98.44866943 70.30281494 -99.39733887 69.98062988 -100.37475586 69.64868164 C-107.73864513 67.23978343 -114.52401226 66.1796489 -122.25 66.125 C-122.97509766 66.104375 -123.70019531 66.08375 -124.44726562 66.0625 C-130.53930488 66.01871176 -135.42274985 67.12180701 -140 71.4375 C-151.65201961 90.32180764 -151.99510549 115.59943918 -149.10546875 136.921875 C-148.64149591 141.11259743 -149.17764267 143.19514262 -151.8125 146.625 C-165.49322999 166.08324943 -170.25707571 187.86177103 -170.1875 211.375 C-170.18618576 212.4641571 -170.18618576 212.4641571 -170.18484497 213.57531738 C-170.13725381 225.56829025 -169.1758346 236.82403273 -165.8125 248.375 C-165.45043457 249.65673096 -165.45043457 249.65673096 -165.08105469 250.96435547 C-159.77158436 269.34714425 -151.86134623 284.57017949 -139.8125 299.375 C-138.8225 300.86 -138.8225 300.86 -137.8125 302.375 C-138.40675781 302.19324219 -139.00101562 302.01148438 -139.61328125 301.82421875 C-141.38383437 301.28727029 -143.15761318 300.76090227 -144.93359375 300.2421875 C-146.71013657 299.7070552 -148.47683524 299.13596852 -150.22265625 298.5078125 C-156.46323588 296.43091595 -162.47405022 296.02987646 -169 295.9375 C-169.84353027 295.91534424 -170.68706055 295.89318848 -171.55615234 295.87036133 C-178.02949105 295.89260429 -183.48684374 297.30074783 -188.34008789 301.78710938 C-192.63793545 306.65265595 -194.24971943 310.88911756 -194.06640625 317.390625 C-193.19622339 324.19143875 -188.1876525 329.26445835 -183.1875 333.5 C-168.03970786 346.59623588 -158.97308694 362.87844301 -151.8125 381.375 C-151.8125 382.365 -151.8125 383.355 -151.8125 384.375 C-194.3521699 345.41761809 -222.10642166 295.08346552 -224.8125 236.375 C-225.00479726 230.7090645 -225.05794984 225.0438831 -225.0625 219.375 C-225.06317474 218.60976013 -225.06384949 217.84452026 -225.06454468 217.05609131 C-225.0467772 204.29306279 -224.32644636 191.92020548 -221.8125 179.375 C-221.64089355 178.51342285 -221.46928711 177.6518457 -221.29248047 176.76416016 C-210.35590463 123.70368631 -181.66057505 74.81864297 -137.8125 42.375 C-137.27367187 41.97539063 -136.73484375 41.57578125 -136.1796875 41.1640625 C-96.17393842 11.80023682 -48.99019089 0.23183615 0 0 Z " fill="#B2B2B2" transform="translate(257.8125,42.625)"/>
<path d="M0 0 C4.32680531 1.37908749 8.45146987 3.02720889 12.625 4.8125 C21.78991789 8.61814102 31.35121163 10.78616632 41 13 C41 13.66 41 14.32 41 15 C33.40844236 17.89922984 24.78070952 18.55033345 16.9765625 16.01953125 C14.51812948 14.81984547 12.26914675 13.52451413 10 12 C8.6078125 11.071875 8.6078125 11.071875 7.1875 10.125 C4.30441018 7.32428418 2.21626538 4.356059 0 1 C0 0.67 0 0.34 0 0 Z " fill="#ACACAC" transform="translate(147,365)"/>
<path d="M0 0 C0.99257812 0.13277344 1.98515625 0.26554687 3.0078125 0.40234375 C11.99904114 1.57966057 20.94440528 2.46232406 30 3 C30 5.97 30 8.94 30 12 C23.4849511 11.48636544 18.13037893 9.1832727 12.1875 6.5625 C10.75760742 5.95051758 10.75760742 5.95051758 9.29882812 5.32617188 C2.27449483 2.27449483 2.27449483 2.27449483 0 0 Z " fill="#A8A8A8" transform="translate(150,455)"/>
</svg>
